<svg xmlns="http://www.w3.org/2000/svg" width="72.953" height="50" viewBox="0 0 72.953 50"><defs><style>.a{fill:#d5af80;}</style></defs><g transform="translate(0 -42.506)"><g transform="translate(0 42.505)"><g transform="translate(0 0)"><path class="a" d="M35.607,129.482a1.275,1.275,0,0,0,.227-.02,1.246,1.246,0,0,0,1-1.452,12.477,12.477,0,0,1,12.256-14.74,12.355,12.355,0,0,1,9.022,3.866,1.247,1.247,0,0,0,1.8-1.72,14.956,14.956,0,0,0-25.782,10.317,15.206,15.206,0,0,0,.248,2.729A1.246,1.246,0,0,0,35.607,129.482Z" transform="translate(-29.149 -100.807)"/><path class="a" d="M377.932,119.518a1.244,1.244,0,0,0-.364,1.724,12.417,12.417,0,0,1,2.013,6.8,1.246,1.246,0,0,0,2.493,0,14.913,14.913,0,0,0-2.417-8.157A1.244,1.244,0,0,0,377.932,119.518Z" transform="translate(-322.25 -108.097)"/><path class="a" d="M192.874,53.074a1.243,1.243,0,0,0,1.729-.339A17.435,17.435,0,0,1,225.876,67.1a1.247,1.247,0,1,0,2.4.664,19.92,19.92,0,0,0-35.745-16.419A1.246,1.246,0,0,0,192.874,53.074Z" transform="translate(-164.233 -42.505)"/><path class="a" d="M13.663,264.761H9.971a7.477,7.477,0,1,1,0-14.954,1.246,1.246,0,1,0,0-2.493,9.97,9.97,0,1,0,0,19.94h3.693a1.246,1.246,0,0,0,0-2.493Z" transform="translate(0 -217.401)"/><path class="a" d="M455.379,198.463a12.463,12.463,0,0,1,1.885,18.736,1.246,1.246,0,1,0,1.813,1.71,14.955,14.955,0,0,0-2.26-22.482,1.247,1.247,0,0,0-1.438,2.036Z" transform="translate(-390.2 -169.3)"/><path class="a" d="M166.512,274.13a9.751,9.751,0,0,0-19.5,0,1.393,1.393,0,0,0,2.786,0,6.965,6.965,0,1,1,6.965,6.965H120.544a1.393,1.393,0,1,0,0,2.786h36.217A9.762,9.762,0,0,0,166.512,274.13Z" transform="translate(-101.749 -234.028)"/><path class="a" d="M74.65,155.863a10.019,10.019,0,0,0-3.856,5.329,1.248,1.248,0,0,0,.839,1.552,1.261,1.261,0,0,0,.355.051,1.245,1.245,0,0,0,1.194-.89,7.506,7.506,0,0,1,2.9-4,1.247,1.247,0,0,0-1.427-2.045Z" transform="translate(-60.41 -139.115)"/></g></g></g></svg>