<svg xmlns="http://www.w3.org/2000/svg" width="53.578" height="36" viewBox="0 0 53.578 36"><defs><style>.a{fill:#d5af80;}</style></defs><path class="a" d="M307.6,146.356a9.423,9.423,0,1,0-9.423-9.424A9.424,9.424,0,0,0,307.6,146.356Zm0-17.564a8.14,8.14,0,1,1-8.14,8.14A8.14,8.14,0,0,1,307.6,128.792Z" transform="translate(-266.864 -123.981)"/><path class="a" d="M330.455,177.55h6.854a1.495,1.495,0,0,0,1.524-1.477v-.02l1.34.907a.583.583,0,0,0,.053.034.727.727,0,0,0,.344.086.711.711,0,0,0,.371-.1.732.732,0,0,0,.35-.631V171.28a.728.728,0,0,0-1.2-.562l-1.284,1.024a1.525,1.525,0,0,0-1.5-1.356h-6.854a1.494,1.494,0,0,0-1.459,1.54v4.146a1.44,1.44,0,0,0,1.459,1.477Zm8.378-4.153,1.176-.969v2.887l-1.176-.809Zm-8.554-1.5a.229.229,0,0,1,.229-.229h6.813a.229.229,0,0,1,.229.229v4.14a.229.229,0,0,1-.229.229h-6.813a.229.229,0,0,1-.229-.229Z" transform="translate(-294.385 -160.604)"/><path class="a" d="M55.034,98.195a12.469,12.469,0,0,0-17.716.024,13.273,13.273,0,0,0-3.664,7.146.641.641,0,0,0,.631.749h0a.642.642,0,0,0,.631-.539,11.932,11.932,0,0,1,3.308-6.451,11.207,11.207,0,0,1,15.9-.018,12,12,0,0,1,3.457,7.691,11.834,11.834,0,0,1-2.423,7.868l-8.983,12.008L37.2,114.693a12.809,12.809,0,0,1-2.248-5.063.64.64,0,1,0-1.257.237,14.34,14.34,0,0,0,2.473,5.588l5.842,7.8A20.3,20.3,0,0,0,36.5,124.5v.005H26.409a2.032,2.032,0,1,1,0-4.063h6.955a3.047,3.047,0,0,0,0-6.095H23.171a1.029,1.029,0,0,0,0-.192c0-2.131-6.021-2.461-8.267-2.511v-3.816a4.993,4.993,0,1,0-1.283,0v3.814c-2.032.044-8.307.355-8.307,2.513,0,2.449,8.025,2.52,8.938,2.52.675,0,5.231-.081,7.563-1.044H33.364a1.764,1.764,0,1,1,0,3.529H26.409a3.315,3.315,0,1,0,0,6.629h8.24a1.625,1.625,0,0,0-.379,1.016c0,1.171,1.262,2.1,3.75,2.788a31.763,31.763,0,0,0,8.07.921c5.268,0,9.778-.989,11.222-2.459a1.763,1.763,0,0,0,.569-1.272c-.007-1.962-3.732-3.06-7.577-3.485l5.881-7.862a13.124,13.124,0,0,0,2.676-8.725,13.292,13.292,0,0,0-3.828-8.515Zm-44.458,4.667a3.725,3.725,0,1,1,3.725,3.725,3.725,3.725,0,0,1-3.725-3.725Zm9.039,12.07a28.476,28.476,0,0,1-5.354.458,28.533,28.533,0,0,1-5.359-.458,5.531,5.531,0,0,1-2.233-.778,5.379,5.379,0,0,1,2.213-.778,27.789,27.789,0,0,1,4.737-.452v.8a.642.642,0,0,0,1.283,0v-.8a26.76,26.76,0,0,1,4.7.451,5.622,5.622,0,0,1,2.243.778,5.5,5.5,0,0,1-2.228.778ZM56.6,126.786v.011a.608.608,0,0,1-.2.355c-1.012,1.03-4.879,2.073-10.308,2.073-6.818,0-10.538-1.611-10.538-2.439,0-.609,2.164-1.893,7.354-2.324l2.753,3.677a.634.634,0,0,0,.492.251.756.756,0,0,0,.549-.278l2.7-3.615c5.015.433,7.2,1.714,7.2,2.289Z" transform="translate(-5.312 -94.513)"/></svg>