<svg xmlns="http://www.w3.org/2000/svg" width="60" height="60" viewBox="0 0 60 60"><defs><style>.a{fill:#d5af80;}</style></defs><g transform="translate(0)"><path class="a" d="M57,20H55.281l.531-2.126A3,3,0,0,0,58,15V3a3,3,0,0,0-3-3H35a3,3,0,0,0-3,3V15a3,3,0,0,0,2.188,2.874L34.719,20H28V18a2,2,0,0,0-2-2H22a2,2,0,0,0-2,2v2H18V18a2,2,0,0,0-2-2H6a2,2,0,0,0-2,2v2H3a3,3,0,0,0-3,3V57a3,3,0,0,0,3,3H57a3,3,0,0,0,3-3V23a3,3,0,0,0-3-3ZM34,3a1,1,0,0,1,1-1H55a1,1,0,0,1,1,1V15a1,1,0,0,1-1,1H35a1,1,0,0,1-1-1Zm2.281,15H53.719l-.5,2H36.781ZM22,18h4v2H22ZM6,18H16v2H6ZM57,58H3a1,1,0,0,1-1-1V54H5a1,1,0,0,0,0-2H2V50H5a1,1,0,0,0,0-2H2V46H5a1,1,0,0,0,0-2H2V42H5a1,1,0,0,0,0-2H2V32H17a1,1,0,1,0,0-2H2V23a1,1,0,0,1,1-1H57a1,1,0,0,1,1,1v7H43a1,1,0,1,0,0,2H58v8H55a1,1,0,0,0,0,2h3v2H55a1,1,0,0,0,0,2h3v2H55a1,1,0,0,0,0,2h3v2H55a1,1,0,0,0,0,2h3v3A1,1,0,0,1,57,58Z" transform="translate(0)"/><path class="a" d="M30,28A14,14,0,1,0,44,42,14,14,0,0,0,30,28Zm0,26A12,12,0,1,1,42,42,12,12,0,0,1,30,54Z" transform="translate(0 0)"/></g></svg>