<svg xmlns="http://www.w3.org/2000/svg" width="65.077" height="60" viewBox="0 0 65.077 60"><defs><style>.a{fill:#d5af80;}</style></defs><g transform="translate(0 -19.973)"><path class="a" d="M36.479,77.106A2.86,2.86,0,0,1,31.6,79.128l-15.1-15.1H6.065a4.741,4.741,0,0,1-4.537-3.3A32.73,32.73,0,0,1,.178,53.851a.953.953,0,0,1,1.9-.178,30.838,30.838,0,0,0,1.269,6.474,2.842,2.842,0,0,0,2.72,1.977h9.876v-11.2H8.924a.953.953,0,1,1,0-1.907H20.381L22.475,40.2a.953.953,0,0,1,1.846-.036L28.7,55.88l1.621-6.15a.953.953,0,0,1,.922-.71h4.283a.953.953,0,0,1,.953.953ZM17.848,62.683l15.1,15.1a.953.953,0,0,0,1.627-.674V50.926h-2.6l-2.329,8.84a.953.953,0,0,1-.915.71h-.007a.953.953,0,0,1-.918-.7L23.476,44.238l-1.414,5.955a.953.953,0,0,1-.927.733H17.848Zm46.276,8.062a.953.953,0,0,1-.953-.953V30.154a.953.953,0,1,1,1.907,0V69.792A.953.953,0,0,1,64.124,70.745ZM58.4,63.119a.953.953,0,0,1-.953-.953V37.78a.953.953,0,1,1,1.907,0V62.166A.953.953,0,0,1,58.4,63.119Zm-11.439,0a.953.953,0,0,1-.953-.953V37.78a.953.953,0,1,1,1.907,0V62.166A.953.953,0,0,1,46.965,63.119Zm5.72-3.813a.953.953,0,0,1-.953-.953V41.593a.953.953,0,1,1,1.907,0V58.352A.953.953,0,0,1,52.685,59.306ZM41.245,55.493a.953.953,0,0,1-.953-.953V45.406a.953.953,0,1,1,1.907,0v9.133A.953.953,0,0,1,41.245,55.493ZM.953,50.926A.953.953,0,0,1,0,49.973,35.53,35.53,0,0,1,1.529,39.219a4.742,4.742,0,0,1,4.537-3.3H16.5l15.1-15.1a2.86,2.86,0,0,1,4.882,2.022V46.16a.953.953,0,1,1-1.907,0V22.84a.953.953,0,0,0-1.627-.674l-15.1,15.1v8.9a.953.953,0,1,1-1.907,0V37.821H6.065A2.841,2.841,0,0,0,3.345,39.8,33.61,33.61,0,0,0,1.907,49.973a.953.953,0,0,1-.953.953Z" transform="translate(0 0)"/></g></svg>