<svg xmlns="http://www.w3.org/2000/svg" width="39.046" height="36" viewBox="0 0 39.046 36"><defs><style>.a{fill:#d5af80;}</style></defs><path class="a" d="M21.887,54.253a1.716,1.716,0,0,1-2.929,1.213L9.9,46.408H3.639A2.845,2.845,0,0,1,.917,44.425,19.638,19.638,0,0,1,.107,40.3a.572.572,0,0,1,1.139-.107,18.5,18.5,0,0,0,.761,3.885,1.7,1.7,0,0,0,1.632,1.186H9.565V38.545H5.354a.572.572,0,1,1,0-1.144h6.874l1.256-5.29a.572.572,0,0,1,1.107-.021l2.627,9.428.972-3.69a.572.572,0,0,1,.553-.426h2.57a.572.572,0,0,1,.572.572ZM10.709,45.6l9.058,9.058a.572.572,0,0,0,.976-.4V38.545H19.186l-1.4,5.3a.572.572,0,0,1-.549.426h0a.572.572,0,0,1-.551-.418l-2.6-9.324-.848,3.573a.572.572,0,0,1-.556.44H10.709Zm27.766,4.837a.572.572,0,0,1-.572-.572V26.082a.572.572,0,1,1,1.144,0V49.864A.572.572,0,0,1,38.474,50.436ZM35.043,45.86a.572.572,0,0,1-.572-.572V30.657a.572.572,0,1,1,1.144,0V45.289A.572.572,0,0,1,35.043,45.86Zm-6.864,0a.572.572,0,0,1-.572-.572V30.657a.572.572,0,1,1,1.144,0V45.289A.572.572,0,0,1,28.179,45.86Zm3.432-2.288A.572.572,0,0,1,31.039,43V32.945a.572.572,0,1,1,1.144,0V43A.572.572,0,0,1,31.611,43.573Zm-6.864-2.288a.572.572,0,0,1-.572-.572v-5.48a.572.572,0,1,1,1.144,0v5.48A.572.572,0,0,1,24.747,41.285ZM.572,38.545A.572.572,0,0,1,0,37.973,21.318,21.318,0,0,1,.917,31.52a2.845,2.845,0,0,1,2.722-1.982H9.9l9.058-9.058a1.716,1.716,0,0,1,2.929,1.213V35.685a.572.572,0,1,1-1.144,0V21.693a.572.572,0,0,0-.976-.4l-9.058,9.058v5.338a.572.572,0,1,1-1.144,0v-5H3.639a1.7,1.7,0,0,0-1.632,1.186,20.166,20.166,0,0,0-.863,6.1.572.572,0,0,1-.572.572Z" transform="translate(0 -19.973)"/></svg>