<svg xmlns="http://www.w3.org/2000/svg" width="44.109" height="38.398" viewBox="0 0 44.109 38.398"><defs><style>.a{fill:#d5af80;}</style></defs><path class="a" d="M229.643,86.714a1.388,1.388,0,0,0-.714-1.213l-3.736-2.076a1.387,1.387,0,0,0-2.061,1.213v4.151A1.385,1.385,0,0,0,225.193,90l3.736-2.076A1.388,1.388,0,0,0,229.643,86.714ZM228.3,86.8l-3.736,2.076a.1.1,0,0,1-.141-.083V84.638a.088.088,0,0,1,.047-.082.094.094,0,0,1,.049-.014.092.092,0,0,1,.046.013l3.736,2.076a.1.1,0,0,1,0,.166Z" transform="translate(-203.909 -78.931)"/><path class="a" d="M218.868,405.883a3.5,3.5,0,0,0-3.5,3.5v.714a2.076,2.076,0,0,0,2.073,2.073h2.854a2.076,2.076,0,0,0,2.073-2.073v-.714A3.5,3.5,0,0,0,218.868,405.883Zm2.208,4.214a.782.782,0,0,1-.781.781H217.44a.782.782,0,0,1-.781-.781v-.714a2.208,2.208,0,1,1,4.417,0Z" transform="translate(-196.813 -373.771)"/><path class="a" d="M231.933,349.973a2.073,2.073,0,1,0,2.073-2.073A2.076,2.076,0,0,0,231.933,349.973Zm2.854,0a.781.781,0,1,1-.781-.781A.782.782,0,0,1,234.787,349.973Z" transform="translate(-211.952 -320.783)"/><path class="a" d="M326.551,405.883a3.5,3.5,0,0,0-3.5,3.5v.714a2.076,2.076,0,0,0,2.073,2.073h2.854a2.076,2.076,0,0,0,2.073-2.073v-.714A3.5,3.5,0,0,0,326.551,405.883Zm2.208,4.214a.782.782,0,0,1-.781.781h-2.854a.782.782,0,0,1-.781-.781v-.714a2.208,2.208,0,1,1,4.417,0Z" transform="translate(-295.219 -373.771)"/><path class="a" d="M339.617,349.973a2.073,2.073,0,1,0,2.073-2.073A2.076,2.076,0,0,0,339.617,349.973Zm2.854,0a.781.781,0,1,1-.781-.781A.782.782,0,0,1,342.471,349.973Z" transform="translate(-310.359 -320.783)"/><path class="a" d="M434.234,405.883a3.5,3.5,0,0,0-3.5,3.5v.714a2.076,2.076,0,0,0,2.073,2.073h2.854a2.076,2.076,0,0,0,2.073-2.073v-.714A3.5,3.5,0,0,0,434.234,405.883Zm2.208,4.214a.782.782,0,0,1-.781.781h-2.854a.782.782,0,0,1-.781-.781v-.714a2.208,2.208,0,1,1,4.417,0Z" transform="translate(-393.626 -373.771)"/><path class="a" d="M447.3,349.973a2.073,2.073,0,1,0,2.073-2.073A2.076,2.076,0,0,0,447.3,349.973Zm2.854,0a.781.781,0,1,1-.781-.781A.782.782,0,0,1,450.154,349.973Z" transform="translate(-408.765 -320.783)"/><path class="a" d="M3.5,405.883a3.5,3.5,0,0,0-3.5,3.5v.714a2.076,2.076,0,0,0,2.073,2.073H4.928A2.076,2.076,0,0,0,7,410.1v-.714A3.5,3.5,0,0,0,3.5,405.883ZM5.709,410.1a.782.782,0,0,1-.781.781H2.073a.782.782,0,0,1-.781-.781v-.714a2.208,2.208,0,1,1,4.417,0v.714Z" transform="translate(0 -373.771)"/><path class="a" d="M18.64,352.047a2.073,2.073,0,1,0-2.073-2.073A2.076,2.076,0,0,0,18.64,352.047Zm0-2.854a.781.781,0,1,1-.781.781A.782.782,0,0,1,18.64,349.192Z" transform="translate(-15.14 -320.783)"/><path class="a" d="M111.185,405.883a3.5,3.5,0,0,0-3.5,3.5v.714a2.076,2.076,0,0,0,2.073,2.073h2.854a2.076,2.076,0,0,0,2.073-2.073v-.714A3.5,3.5,0,0,0,111.185,405.883Zm2.208,4.214a.782.782,0,0,1-.781.781h-2.854a.782.782,0,0,1-.781-.781v-.714a2.208,2.208,0,1,1,4.417,0Z" transform="translate(-98.407 -373.771)"/><path class="a" d="M124.25,349.973a2.073,2.073,0,1,0,2.073-2.073A2.076,2.076,0,0,0,124.25,349.973Zm2.854,0a.781.781,0,1,1-.781-.781A.782.782,0,0,1,127.1,349.973Z" transform="translate(-113.546 -320.783)"/><path class="a" d="M33.779,240.361a.646.646,0,0,0,.646-.646v-2.141a.782.782,0,0,1,.781-.781h7.2v2.922a.646.646,0,0,0,1.292,0v-2.922h7.985v2.922a.646.646,0,0,0,1.292,0v-2.922h7.985v2.922a.646.646,0,0,0,1.292,0v-2.922h7.2a.782.782,0,0,1,.781.781v2.141a.646.646,0,0,0,1.292,0v-2.141A2.076,2.076,0,0,0,69.46,235.5H52.979v-2.922a.646.646,0,1,0-1.292,0V235.5H35.206a2.076,2.076,0,0,0-2.073,2.073v2.141A.646.646,0,0,0,33.779,240.361Z" transform="translate(-30.279 -214.806)"/><path class="a" d="M173.449,48.7a7.779,7.779,0,0,0,6.49-12.072.646.646,0,1,0-1.077.714,6.495,6.495,0,1,1-1.836-1.837.646.646,0,0,0,.714-1.077,7.781,7.781,0,1,0-4.29,14.273Z" transform="translate(-151.395 -33.132)"/></svg>