<svg xmlns="http://www.w3.org/2000/svg" width="89.296" height="60" viewBox="0 0 89.296 60"><defs><style>.a{fill:#d5af80;}</style></defs><g transform="translate(-5.313 -84.756)"><path class="a" d="M313.886,158.921a15.706,15.706,0,1,0-15.706-15.706A15.706,15.706,0,0,0,313.886,158.921Zm0-29.273a13.567,13.567,0,1,1-13.567,13.567A13.567,13.567,0,0,1,313.886,129.648Z" transform="translate(-240.675 -36.874)"/><path class="a" d="M331.428,182.326h11.423a2.491,2.491,0,0,0,2.541-2.462v-.033l2.234,1.512a.96.96,0,0,0,.089.057,1.212,1.212,0,0,0,.573.143,1.185,1.185,0,0,0,.619-.174,1.221,1.221,0,0,0,.583-1.051v-8.441a1.213,1.213,0,0,0-2-.937l-2.14,1.706a2.541,2.541,0,0,0-2.5-2.259H331.428A2.49,2.49,0,0,0,329,172.953v6.911a2.4,2.4,0,0,0,2.432,2.462Zm13.964-6.922,1.96-1.616V178.6l-1.96-1.348Zm-14.257-2.5a.382.382,0,0,1,.382-.382h11.355a.382.382,0,0,1,.382.382v6.9a.382.382,0,0,1-.382.382H331.516a.382.382,0,0,1-.382-.382Z" transform="translate(-265.999 -69.327)"/><path class="a" d="M88.182,100.649a20.781,20.781,0,0,0-29.527.04A22.121,22.121,0,0,0,52.548,112.6a1.068,1.068,0,0,0,1.051,1.249h.006a1.069,1.069,0,0,0,1.051-.9A19.886,19.886,0,0,1,60.171,102.2a18.678,18.678,0,0,1,26.494-.03,20,20,0,0,1,5.762,12.819A19.723,19.723,0,0,1,88.389,128.1L73.418,148.112,58.455,128.147a21.348,21.348,0,0,1-3.746-8.439,1.066,1.066,0,1,0-2.095.395,23.9,23.9,0,0,0,4.121,9.314l9.737,13.006a33.831,33.831,0,0,0-9.178,2.069v.008H40.474a3.386,3.386,0,1,1,0-6.772H52.066a5.079,5.079,0,0,0,0-10.158H35.077a1.715,1.715,0,0,0,0-.321c0-3.551-10.035-4.1-13.778-4.185V116.7a8.322,8.322,0,1,0-2.139,0v6.356c-3.386.073-13.845.591-13.845,4.188,0,4.081,13.374,4.2,14.9,4.2,1.125,0,8.718-.136,12.6-1.74H52.066a2.94,2.94,0,1,1,0,5.881H40.474a5.525,5.525,0,1,0,0,11.049H54.207a2.708,2.708,0,0,0-.631,1.693c0,1.951,2.1,3.505,6.25,4.647a52.939,52.939,0,0,0,13.451,1.535c8.78,0,16.3-1.649,18.7-4.1a2.939,2.939,0,0,0,.948-2.121c-.012-3.269-6.22-5.1-12.628-5.808l9.8-13.1a21.873,21.873,0,0,0,4.46-14.542,22.153,22.153,0,0,0-6.38-14.191Zm-74.1,7.778a6.209,6.209,0,1,1,6.209,6.209,6.209,6.209,0,0,1-6.209-6.209Zm15.064,20.117a47.461,47.461,0,0,1-8.923.763,47.555,47.555,0,0,1-8.931-.763,9.218,9.218,0,0,1-3.721-1.3,8.965,8.965,0,0,1,3.688-1.3,46.313,46.313,0,0,1,7.9-.753v1.336a1.069,1.069,0,0,0,2.139,0V125.2a44.6,44.6,0,0,1,7.828.751,9.369,9.369,0,0,1,3.738,1.3,9.16,9.16,0,0,1-3.713,1.3ZM90.8,148.3v.018a1.014,1.014,0,0,1-.339.592c-1.687,1.717-8.132,3.455-17.18,3.455-11.363,0-17.563-2.685-17.563-4.065,0-1.015,3.607-3.154,12.257-3.874l4.589,6.129a1.057,1.057,0,0,0,.82.418,1.26,1.26,0,0,0,.915-.463l4.506-6.025c8.359.722,11.993,2.857,11.993,3.816Z" transform="translate(0 -9.758)"/></g></svg>