<svg xmlns="http://www.w3.org/2000/svg" width="63.362" height="70" viewBox="0 0 63.362 70"><defs><style>.a{fill:#d5af80;}</style></defs><g transform="translate(-1 9.707)"><path class="a" d="M6.1,10.614l2.132,2.132-.81.81a1.021,1.021,0,0,0,0,1.445l2.343,2.343L8.447,18.667a1.021,1.021,0,0,0,0,1.445l3.066,3.066a1.021,1.021,0,0,0,1.445,0l2.159-2.159,8.5,13.519L18.7,39.077l1.386,1.5,4.64-4.283,6.746,10.732L26.7,54.614,28.43,55.7l4.245-6.751L36.919,55.7l1.73-1.087L33.882,47.03,40.628,36.3l4.64,4.283,1.386-1.5-4.92-4.541,8.5-13.519,2.159,2.159a1.03,1.03,0,0,0,.724.3,1.019,1.019,0,0,0,.723-.3L56.9,20.112a1.021,1.021,0,0,0,0-1.445l-1.321-1.321L57.925,15a1.021,1.021,0,0,0,0-1.445l-.81-.81,2.132-2.132,3.365,3.365,1.445-1.445L52.815,1.293,51.37,2.738,54.735,6.1,52.6,8.235l-.81-.81a1.021,1.021,0,0,0-1.445,0L48,9.768,46.683,8.447a1.021,1.021,0,0,0-1.445,0l-3.066,3.066a1.021,1.021,0,0,0,0,1.445l2.314,2.314-11.811,10.9-11.811-10.9,2.314-2.314a1.021,1.021,0,0,0,0-1.445L20.112,8.447a1.021,1.021,0,0,0-1.445,0L17.345,9.768,15,7.425a1.021,1.021,0,0,0-1.445,0l-.81.81L10.614,6.1,13.98,2.738,12.535,1.293,1.293,12.535,2.738,13.98ZM32.675,45.108,26.25,34.886l6.425-5.931L39.1,34.886ZM56.18,7.549,57.8,9.169,55.669,11.3,54.048,9.68ZM51.07,9.592l4.687,4.687L54.136,15.9,49.45,11.213Zm-5.11,1.022,8.775,8.775L53.114,21.01,44.34,12.235Zm-.029,6.1,2.818,2.818L40.207,33.127l-6.026-5.562ZM31.168,27.565l-6.025,5.562L16.6,19.535l2.818-2.818ZM19.389,10.614l1.621,1.621L12.235,21.01l-1.621-1.621Zm-3.489.6L11.213,15.9,9.592,14.279l4.687-4.687ZM11.3,9.68,9.68,11.3,7.549,9.169,9.169,7.549Z" transform="translate(0.006 -11)"/><path class="a" d="M63.341,57H2.022A1.022,1.022,0,0,0,1,58.022V62.11a1.022,1.022,0,0,0,1.022,1.022H63.341a1.022,1.022,0,0,0,1.022-1.022V58.022A1.022,1.022,0,0,0,63.341,57Zm-1.022,4.088H3.044V59.044H62.319Z" transform="translate(0 -2.839)"/><path class="a" d="M52.176,36.022a1.022,1.022,0,0,0-2.044,0,5.116,5.116,0,0,1-5.11,5.11,1.022,1.022,0,0,0,0,2.044,5.116,5.116,0,0,1,5.11,5.11,1.022,1.022,0,0,0,2.044,0,5.116,5.116,0,0,1,5.11-5.11,1.022,1.022,0,0,0,0-2.044A5.116,5.116,0,0,1,52.176,36.022ZM51.154,44.6a7.212,7.212,0,0,0-2.45-2.45,7.212,7.212,0,0,0,2.45-2.45,7.212,7.212,0,0,0,2.45,2.45A7.221,7.221,0,0,0,51.154,44.6Z" transform="translate(0.945 -3.322)"/><path class="a" d="M14.176,36.022a1.022,1.022,0,0,0-2.044,0,5.116,5.116,0,0,1-5.11,5.11,1.022,1.022,0,0,0,0,2.044,5.116,5.116,0,0,1,5.11,5.11,1.022,1.022,0,0,0,2.044,0,5.116,5.116,0,0,1,5.11-5.11,1.022,1.022,0,0,0,0-2.044A5.116,5.116,0,0,1,14.176,36.022ZM13.154,44.6a7.212,7.212,0,0,0-2.45-2.45,7.212,7.212,0,0,0,2.45-2.45,7.212,7.212,0,0,0,2.45,2.45A7.221,7.221,0,0,0,13.154,44.6Z" transform="translate(0.11 -3.322)"/></g></svg>