<svg xmlns="http://www.w3.org/2000/svg" width="73.515" height="63.998" viewBox="0 0 73.515 63.998"><defs><style>.a{fill:#d5af80;}</style></defs><g transform="translate(0 -33.133)"><path class="a" d="M233.983,89.024A2.313,2.313,0,0,0,232.794,87l-6.227-3.459a2.312,2.312,0,0,0-3.435,2.021v6.919a2.308,2.308,0,0,0,3.435,2.021l6.227-3.459A2.313,2.313,0,0,0,233.983,89.024Zm-2.235.138-6.227,3.459a.158.158,0,0,1-.235-.139V85.564a.147.147,0,0,1,.078-.136.157.157,0,0,1,.081-.024.154.154,0,0,1,.076.022l6.227,3.459a.158.158,0,0,1,0,.277Z" transform="translate(-191.094 -42.921)"/><path class="a" d="M221.2,405.883a5.841,5.841,0,0,0-5.834,5.834v1.189a3.459,3.459,0,0,0,3.455,3.456h4.757a3.459,3.459,0,0,0,3.455-3.456v-1.189A5.841,5.841,0,0,0,221.2,405.883Zm3.68,7.024a1.3,1.3,0,0,1-1.3,1.3h-4.757a1.3,1.3,0,0,1-1.3-1.3v-1.189a3.68,3.68,0,1,1,7.361,0Z" transform="translate(-184.444 -319.23)"/><path class="a" d="M231.933,351.356a3.456,3.456,0,1,0,3.456-3.456A3.459,3.459,0,0,0,231.933,351.356Zm4.757,0a1.3,1.3,0,1,1-1.3-1.3A1.3,1.3,0,0,1,236.69,351.356Z" transform="translate(-198.631 -269.573)"/><path class="a" d="M328.884,405.883a5.841,5.841,0,0,0-5.834,5.834v1.189a3.459,3.459,0,0,0,3.456,3.456h4.757a3.459,3.459,0,0,0,3.455-3.456v-1.189A5.841,5.841,0,0,0,328.884,405.883Zm3.68,7.024a1.3,1.3,0,0,1-1.3,1.3h-4.757a1.3,1.3,0,0,1-1.3-1.3v-1.189a3.68,3.68,0,1,1,7.361,0Z" transform="translate(-276.665 -319.23)"/><path class="a" d="M339.617,351.356a3.456,3.456,0,1,0,3.455-3.456A3.459,3.459,0,0,0,339.617,351.356Zm4.757,0a1.3,1.3,0,1,1-1.3-1.3A1.3,1.3,0,0,1,344.374,351.356Z" transform="translate(-290.854 -269.573)"/><path class="a" d="M436.568,405.883a5.841,5.841,0,0,0-5.834,5.834v1.189a3.459,3.459,0,0,0,3.455,3.456h4.757a3.459,3.459,0,0,0,3.456-3.456v-1.189A5.841,5.841,0,0,0,436.568,405.883Zm3.68,7.024a1.3,1.3,0,0,1-1.3,1.3h-4.757a1.3,1.3,0,0,1-1.3-1.3v-1.189a3.68,3.68,0,1,1,7.361,0Z" transform="translate(-368.888 -319.23)"/><path class="a" d="M447.3,351.356a3.456,3.456,0,1,0,3.456-3.456A3.459,3.459,0,0,0,447.3,351.356Zm4.757,0a1.3,1.3,0,1,1-1.3-1.3A1.3,1.3,0,0,1,452.057,351.356Z" transform="translate(-383.075 -269.573)"/><path class="a" d="M5.834,405.883A5.841,5.841,0,0,0,0,411.717v1.189a3.459,3.459,0,0,0,3.456,3.456H8.213a3.459,3.459,0,0,0,3.455-3.456v-1.189A5.841,5.841,0,0,0,5.834,405.883Zm3.681,7.024a1.3,1.3,0,0,1-1.3,1.3H3.456a1.3,1.3,0,0,1-1.3-1.3v-1.189a3.68,3.68,0,1,1,7.361,0v1.189Z" transform="translate(0 -319.23)"/><path class="a" d="M20.022,354.811a3.456,3.456,0,1,0-3.455-3.456A3.459,3.459,0,0,0,20.022,354.811Zm0-4.757a1.3,1.3,0,1,1-1.3,1.3A1.3,1.3,0,0,1,20.022,350.054Z" transform="translate(-14.188 -269.573)"/><path class="a" d="M113.518,405.883a5.841,5.841,0,0,0-5.834,5.834v1.189a3.459,3.459,0,0,0,3.455,3.456H115.9a3.459,3.459,0,0,0,3.456-3.456v-1.189A5.841,5.841,0,0,0,113.518,405.883Zm3.68,7.024a1.3,1.3,0,0,1-1.3,1.3h-4.757a1.3,1.3,0,0,1-1.3-1.3v-1.189a3.68,3.68,0,1,1,7.361,0Z" transform="translate(-92.222 -319.23)"/><path class="a" d="M124.25,351.356a3.456,3.456,0,1,0,3.456-3.456A3.459,3.459,0,0,0,124.25,351.356Zm4.757,0a1.3,1.3,0,1,1-1.3-1.3A1.3,1.3,0,0,1,129.007,351.356Z" transform="translate(-106.41 -269.573)"/><path class="a" d="M34.21,245.98a1.077,1.077,0,0,0,1.077-1.077v-3.568a1.3,1.3,0,0,1,1.3-1.3H48.594v4.87a1.077,1.077,0,1,0,2.154,0v-4.87H64.056v4.87a1.077,1.077,0,1,0,2.154,0v-4.87H79.518v4.87a1.077,1.077,0,1,0,2.154,0v-4.87H93.677a1.3,1.3,0,0,1,1.3,1.3V244.9a1.077,1.077,0,0,0,2.154,0v-3.568a3.459,3.459,0,0,0-3.456-3.456H66.21v-4.87a1.077,1.077,0,1,0-2.154,0v4.87H36.589a3.459,3.459,0,0,0-3.456,3.456V244.9a1.077,1.077,0,0,0,1.077,1.077Z" transform="translate(-28.376 -170.257)"/><path class="a" d="M178.637,59.073a12.965,12.965,0,0,0,10.817-20.12,1.077,1.077,0,1,0-1.8,1.189,10.825,10.825,0,1,1-3.061-3.061,1.077,1.077,0,0,0,1.189-1.8,12.969,12.969,0,1,0-7.15,23.788Z" transform="translate(-141.88)"/></g></svg>