<svg xmlns="http://www.w3.org/2000/svg" width="63.998" height="80" viewBox="0 0 63.998 80"><defs><style>.a{fill:#d5af80;}</style></defs><g transform="translate(-48.004)"><g transform="translate(48.003)"><path class="a" d="M233.336,8a1.333,1.333,0,0,0,1.333-1.333V1.333a1.333,1.333,0,1,0-2.667,0V6.667A1.333,1.333,0,0,0,233.336,8Z" transform="translate(-201.337)"/><path class="a" d="M140.158,26.616l2.667,4.617a1.333,1.333,0,1,0,2.318-1.318l-.009-.015-2.667-4.617a1.333,1.333,0,1,0-2.318,1.318Z" transform="translate(-124.646 -20.507)"/><path class="a" d="M73.271,94.456l.015.009L77.9,97.132a1.333,1.333,0,1,0,1.348-2.3l-.015-.009-4.617-2.667a1.333,1.333,0,1,0-1.348,2.3Z" transform="translate(-68.51 -76.644)"/><path class="a" d="M56,185.333A1.333,1.333,0,0,0,54.67,184H49.336a1.333,1.333,0,0,0,0,2.667H54.67A1.333,1.333,0,0,0,56,185.333Z" transform="translate(-48.003 -153.334)"/><path class="a" d="M77.918,260.146l-.016.009-4.617,2.667A1.333,1.333,0,0,0,74.6,265.14l.016-.009,4.617-2.667a1.333,1.333,0,0,0-1.318-2.318Z" transform="translate(-68.51 -216.644)"/><path class="a" d="M370.236,262.831l-.016-.009-4.617-2.667a1.333,1.333,0,0,0-1.349,2.3l.016.009,4.617,2.667a1.333,1.333,0,0,0,1.349-2.3Z" transform="translate(-310.997 -216.644)"/><path class="a" d="M390.67,184h-5.333a1.333,1.333,0,1,0,0,2.667h5.333a1.333,1.333,0,0,0,0-2.667Z" transform="translate(-328.004 -153.334)"/><path class="a" d="M364.983,97.31a1.334,1.334,0,0,0,.667-.179l4.617-2.667a1.333,1.333,0,1,0-1.318-2.318l-.015.009-4.617,2.667a1.333,1.333,0,0,0,.667,2.488Z" transform="translate(-311.042 -76.643)"/><path class="a" d="M308.664,31.722h0a1.333,1.333,0,0,0,1.821-.489h0l2.667-4.617a1.333,1.333,0,0,0-2.3-1.349l-.009.016L308.177,29.9A1.334,1.334,0,0,0,308.664,31.722Z" transform="translate(-264.666 -20.506)"/><path class="a" d="M182.669,186.666A1.333,1.333,0,0,0,184,185.333V170.667h2.667a5.333,5.333,0,1,0-5.333-5.333V168H178.67v-2.667a5.333,5.333,0,1,0-5.333,5.333H176v14.667a1.333,1.333,0,1,0,2.667,0V170.667h2.667v14.667A1.333,1.333,0,0,0,182.669,186.666ZM184,165.333A2.667,2.667,0,1,1,186.669,168H184ZM176,168h-2.667A2.667,2.667,0,1,1,176,165.333Z" transform="translate(-148.003 -133.334)"/><path class="a" d="M134.433,64.027a21.333,21.333,0,0,0-14.559,37.8,3.974,3.974,0,0,1,1.523,3.049V108a4,4,0,0,0,2.667,3.755v1.579A3.975,3.975,0,0,0,125.1,116a3.939,3.939,0,0,0,0,5.333,3.983,3.983,0,0,0,2.96,6.667,1.3,1.3,0,0,0,1.1-2.049,1.415,1.415,0,0,0-.149-.231,1.378,1.378,0,0,0-.371-.243c-.039-.02-.077-.036-.117-.052a1.414,1.414,0,0,0-.42-.084c-.013,0-.025-.008-.039-.008a1.333,1.333,0,0,1,0-2.667H133.4a1.333,1.333,0,1,0,0-2.667h-5.333a1.333,1.333,0,0,1,0-2.667H133.4a1.333,1.333,0,1,0,0-2.667h-5.333a1.333,1.333,0,0,1-1.333-1.333V112H133.4a1.333,1.333,0,1,0,0-2.667h-8A1.333,1.333,0,0,1,124.064,108v-3.127a6.628,6.628,0,0,0-2.5-5.113,18.666,18.666,0,0,1,12.743-33.066,18.881,18.881,0,0,1,17.757,18.526,18.557,18.557,0,0,1-6.927,14.617,6.609,6.609,0,0,0-2.407,5.191V108a1.333,1.333,0,0,1-1.333,1.333h-4a1.333,1.333,0,0,0,0,2.667h2.667v1.333a1.333,1.333,0,0,1-1.333,1.333H137.4a1.333,1.333,0,0,0,0,2.667h1.333a1.333,1.333,0,0,1,0,2.667H137.4a1.333,1.333,0,0,0,0,2.667h1.333a1.333,1.333,0,0,1,0,2.667h-6.667a1.333,1.333,0,0,0,0,2.667h5.105a4,4,0,0,1-6.761,1.324,1.333,1.333,0,1,0-1.992,1.773,6.652,6.652,0,0,0,11.535-3.308,3.961,3.961,0,0,0,1.74-6.456,3.939,3.939,0,0,0,0-5.333,3.975,3.975,0,0,0,1.04-2.667v-1.579A4,4,0,0,0,145.4,108v-2.972a4.008,4.008,0,0,1,1.415-3.116A21.207,21.207,0,0,0,154.73,85.2,21.581,21.581,0,0,0,134.433,64.027Z" transform="translate(-101.397 -53.335)"/></g></g></svg>