<svg xmlns="http://www.w3.org/2000/svg" width="71.739" height="55" viewBox="0 0 71.739 55"><defs><style>.a{fill:#d5af80;}</style></defs><g transform="translate(0 -59.732)"><g transform="translate(0 59.733)"><path class="a" d="M35.33,103.432H66.564a4.785,4.785,0,0,0,0-9.565,4.753,4.753,0,0,0-3.385,1.4,1.2,1.2,0,0,0,1.693,1.689,2.373,2.373,0,0,1,1.692-.7,2.4,2.4,0,0,1,0,4.783H35.33a1.2,1.2,0,1,0,0,2.391Z" transform="translate(-29.351 -89.084)"/><path class="a" d="M18.263,81.255H70.871c5.08,0,10.761-4.6,10.761-10.761S75.952,59.733,70.871,59.733A10.774,10.774,0,0,0,60.11,70.494a1.2,1.2,0,1,0,2.391,0,8.379,8.379,0,0,1,8.369-8.369c3.87,0,8.369,3.656,8.369,8.369s-4.5,8.37-8.369,8.37H18.263a1.2,1.2,0,0,0,0,2.391Z" transform="translate(-14.676 -59.733)"/><path class="a" d="M64.565,247.467H1.2a1.2,1.2,0,1,0,0,2.391H64.565a4.783,4.783,0,1,1-4.783,4.783,1.2,1.2,0,0,0-2.391,0,7.174,7.174,0,1,0,7.174-7.174Z" transform="translate(0 -221.163)"/><path class="a" d="M62.829,349.867H35.33a1.2,1.2,0,0,0,0,2.391h27.5a4.783,4.783,0,1,1-4.783,4.783,1.2,1.2,0,1,0-2.391,0,7.174,7.174,0,1,0,7.174-7.174Z" transform="translate(-29.351 -309.215)"/><path class="a" d="M62.5,298.667H18.263a1.2,1.2,0,1,0,0,2.391H62.5a2.391,2.391,0,1,1-1.693,4.082,1.2,1.2,0,1,0-1.692,1.689,4.783,4.783,0,1,0,3.385-8.163Z" transform="translate(-14.676 -265.189)"/></g></g></svg>