<svg xmlns="http://www.w3.org/2000/svg" width="38.018" height="42" viewBox="0 0 38.018 42"><defs><style>.a{fill:#d5af80;}</style></defs><path class="a" d="M4.179,6.886,5.458,8.165l-.486.486a.613.613,0,0,0,0,.867l1.406,1.406-.793.793a.613.613,0,0,0,0,.867l1.84,1.84a.613.613,0,0,0,.867,0l1.3-1.3,5.1,8.111-2.952,2.724.831.9L15.35,22.3,19.4,28.734l-2.861,4.551,1.038.652,2.547-4.051,2.547,4.052,1.038-.652-2.861-4.551L24.894,22.3l2.784,2.57.831-.9-2.952-2.724,5.1-8.111,1.3,1.3a.618.618,0,0,0,.434.178.612.612,0,0,0,.434-.18l1.84-1.84a.612.612,0,0,0,0-.867l-.793-.793,1.406-1.406a.613.613,0,0,0,0-.867l-.486-.486,1.279-1.279,2.019,2.019.867-.867L32.206,1.293l-.867.867,2.019,2.019L32.079,5.458l-.486-.486a.613.613,0,0,0-.867,0L29.32,6.378l-.793-.793a.613.613,0,0,0-.867,0l-1.84,1.84a.613.613,0,0,0,0,.867L27.209,9.68l-7.087,6.541L13.035,9.68l1.388-1.388a.613.613,0,0,0,0-.867l-1.84-1.84a.613.613,0,0,0-.867,0l-.793.793L9.518,4.972a.612.612,0,0,0-.867,0l-.486.486L6.886,4.179,8.905,2.16l-.867-.867L1.293,8.038l.867.867Zm15.943,20.7-3.855-6.133,3.855-3.558,3.855,3.558Zm14.1-22.536.973.973L33.919,7.3l-.973-.973ZM31.159,6.273l2.812,2.812L33,10.057,30.187,7.245Zm-3.066.613,5.265,5.265-.973.973L27.121,7.858Zm-.017,3.662,1.691,1.691-5.126,8.155-3.615-3.337Zm-8.858,6.508L15.6,20.393l-5.126-8.155,1.691-1.691ZM12.151,6.886l.973.973L7.858,13.123l-.973-.973Zm-2.093.359L7.245,10.057l-.973-.973L9.085,6.273ZM7.3,6.325,6.325,7.3,5.046,6.019l.973-.973Z" transform="translate(-1.113 -1.293)"/><path class="a" d="M38.4,57H1.613A.613.613,0,0,0,1,57.613v2.453a.613.613,0,0,0,.613.613H38.4a.613.613,0,0,0,.613-.613V57.613A.613.613,0,0,0,38.4,57Zm-.613,2.453H2.226V58.226H37.791Z" transform="translate(-1 -18.679)"/><path class="a" d="M48.905,35.613a.613.613,0,1,0-1.226,0,3.069,3.069,0,0,1-3.066,3.066.613.613,0,0,0,0,1.226,3.069,3.069,0,0,1,3.066,3.066.613.613,0,1,0,1.226,0,3.069,3.069,0,0,1,3.066-3.066.613.613,0,0,0,0-1.226A3.069,3.069,0,0,1,48.905,35.613Zm-.613,5.149a4.327,4.327,0,0,0-1.47-1.47,4.327,4.327,0,0,0,1.47-1.47,4.327,4.327,0,0,0,1.47,1.47A4.333,4.333,0,0,0,48.292,40.762Z" transform="translate(-17.633 -10.169)"/><path class="a" d="M10.905,35.613a.613.613,0,0,0-1.226,0,3.069,3.069,0,0,1-3.066,3.066.613.613,0,0,0,0,1.226,3.069,3.069,0,0,1,3.066,3.066.613.613,0,0,0,1.226,0,3.069,3.069,0,0,1,3.066-3.066.613.613,0,0,0,0-1.226A3.069,3.069,0,0,1,10.905,35.613Zm-.613,5.149a4.327,4.327,0,0,0-1.47-1.47,4.327,4.327,0,0,0,1.47-1.47,4.327,4.327,0,0,0,1.47,1.47A4.333,4.333,0,0,0,10.292,40.762Z" transform="translate(-2.934 -10.169)"/></svg>