<svg xmlns="http://www.w3.org/2000/svg" width="78.283" height="54" viewBox="0 0 78.283 54"><defs><style>.a{fill:#d5af80;}</style></defs><path class="a" d="M57.273,84.917H21.011a.785.785,0,1,1,0-1.571h6.066l1.563-6.12H2.782A2.785,2.785,0,0,1,0,74.445V33.7a2.785,2.785,0,0,1,2.782-2.782H75.5A2.785,2.785,0,0,1,78.284,33.7V74.444A2.785,2.785,0,0,1,75.5,77.226H49.644l1.563,6.12h6.066a.786.786,0,0,1,0,1.571ZM28.7,83.346H49.585l-1.563-6.12H30.261Zm19.934-7.691H75.5a1.212,1.212,0,0,0,1.211-1.211V33.7A1.212,1.212,0,0,0,75.5,32.488H2.782A1.212,1.212,0,0,0,1.571,33.7V74.444a1.212,1.212,0,0,0,1.211,1.211Zm25.1-2.7H4.549a.786.786,0,0,1-.785-.785V35.5a.786.786,0,0,1,.785-.785H73.735a.786.786,0,0,1,.785.785V72.173A.786.786,0,0,1,73.735,72.959Zm-68.4-1.571H72.949v-35.1H5.334ZM56,68.488a.786.786,0,0,1-.555-1.341L69.186,53.4A.785.785,0,0,1,70.3,54.512L56.552,68.258A.782.782,0,0,1,56,68.488ZM9.1,57.655a.786.786,0,0,1-.555-1.341L25.79,39.067A.785.785,0,0,1,26.9,40.178L9.654,57.425A.783.783,0,0,1,9.1,57.655ZM9.262,46.1a.786.786,0,0,1-.555-1.341L14.4,39.067a.785.785,0,0,1,1.111,1.111L9.817,45.872A.782.782,0,0,1,9.262,46.1Z" transform="translate(0 -30.918)"/></svg>