<svg xmlns="http://www.w3.org/2000/svg" width="38.399" height="48" viewBox="0 0 38.399 48"><defs><style>.a{fill:#d5af80;}</style></defs><g transform="translate(0)"><path class="a" d="M232.8,4.8a.8.8,0,0,0,.8-.8V.8a.8.8,0,1,0-1.6,0V4A.8.8,0,0,0,232.8,4.8Z" transform="translate(-213.603)"/><path class="a" d="M140.085,25.813l1.6,2.77a.8.8,0,1,0,1.391-.791l-.005-.009-1.6-2.77a.8.8,0,1,0-1.391.791Z" transform="translate(-130.778 -22.147)"/><path class="a" d="M73.007,93.463l.009.005,2.77,1.6a.8.8,0,1,0,.809-1.38l-.009-.005-2.77-1.6a.8.8,0,1,0-.809,1.38Z" transform="translate(-70.151 -82.775)"/><path class="a" d="M52.8,184.8a.8.8,0,0,0-.8-.8H48.8a.8.8,0,0,0,0,1.6H52A.8.8,0,0,0,52.8,184.8Z" transform="translate(-48.003 -165.6)"/><path class="a" d="M75.8,260.076l-.009.005-2.77,1.6a.8.8,0,0,0,.791,1.391l.009-.005,2.77-1.6a.8.8,0,0,0-.791-1.391Z" transform="translate(-70.15 -233.975)"/><path class="a" d="M367.579,261.687l-.009-.005-2.77-1.6a.8.8,0,0,0-.809,1.38l.009.005,2.77,1.6a.8.8,0,0,0,.809-1.38Z" transform="translate(-332.036 -233.975)"/><path class="a" d="M388,184h-3.2a.8.8,0,1,0,0,1.6H388a.8.8,0,0,0,0-1.6Z" transform="translate(-350.403 -165.6)"/><path class="a" d="M364.449,95.175a.8.8,0,0,0,.4-.107l2.77-1.6a.8.8,0,0,0-.791-1.391l-.009.005-2.77,1.6a.8.8,0,0,0,.4,1.493Z" transform="translate(-332.085 -82.775)"/><path class="a" d="M308.4,28.876h0a.8.8,0,0,0,1.093-.293h0l1.6-2.77a.8.8,0,1,0-1.38-.809l-.005.009-1.6,2.77A.8.8,0,0,0,308.4,28.876Z" transform="translate(-281.999 -22.147)"/><path class="a" d="M176.8,176a.8.8,0,0,0,.8-.8v-8.8h1.6a3.2,3.2,0,1,0-3.2-3.2v1.6h-1.6v-1.6a3.2,3.2,0,1,0-3.2,3.2h1.6v8.8a.8.8,0,1,0,1.6,0v-8.8H176v8.8A.8.8,0,0,0,176.8,176Zm.8-12.8a1.6,1.6,0,1,1,1.6,1.6h-1.6Zm-4.8,1.6h-1.6a1.6,1.6,0,1,1,1.6-1.6Z" transform="translate(-156.003 -144)"/><path class="a" d="M125.49,64.017A12.8,12.8,0,0,0,116.755,86.7a2.384,2.384,0,0,1,.914,1.83V90.4a2.4,2.4,0,0,0,1.6,2.253V93.6a2.385,2.385,0,0,0,.624,1.6,2.363,2.363,0,0,0,0,3.2,2.39,2.39,0,0,0,1.776,4,.78.78,0,0,0,.658-1.23.849.849,0,0,0-.09-.138.827.827,0,0,0-.222-.146c-.023-.012-.046-.022-.07-.031a.849.849,0,0,0-.252-.05c-.008,0-.015,0-.023,0a.8.8,0,0,1,0-1.6h3.2a.8.8,0,1,0,0-1.6h-3.2a.8.8,0,0,1,0-1.6h3.2a.8.8,0,1,0,0-1.6h-3.2a.8.8,0,0,1-.8-.8v-.8h4a.8.8,0,1,0,0-1.6h-4.8a.8.8,0,0,1-.8-.8V88.525a3.977,3.977,0,0,0-1.5-3.068,11.2,11.2,0,0,1,7.646-19.84,11.329,11.329,0,0,1,10.654,11.116,11.134,11.134,0,0,1-4.156,8.77,3.966,3.966,0,0,0-1.444,3.114V90.4a.8.8,0,0,1-.8.8h-2.4a.8.8,0,0,0,0,1.6h1.6v.8a.8.8,0,0,1-.8.8h-.8a.8.8,0,0,0,0,1.6h.8a.8.8,0,0,1,0,1.6h-.8a.8.8,0,0,0,0,1.6h.8a.8.8,0,0,1,0,1.6h-4a.8.8,0,0,0,0,1.6h3.063a2.4,2.4,0,0,1-4.057.794.8.8,0,1,0-1.2,1.064,3.991,3.991,0,0,0,6.921-1.985,2.377,2.377,0,0,0,1.044-3.874,2.363,2.363,0,0,0,0-3.2,2.385,2.385,0,0,0,.624-1.6v-.947a2.4,2.4,0,0,0,1.6-2.253V88.618a2.4,2.4,0,0,1,.849-1.87,12.724,12.724,0,0,0,4.751-10.027A12.949,12.949,0,0,0,125.49,64.017Z" transform="translate(-105.669 -57.602)"/></g></svg>