<svg xmlns="http://www.w3.org/2000/svg" width="36" height="36" viewBox="0 0 36 36"><defs><style>.a{fill:#d5af80;}</style></defs><g transform="translate(0)"><path class="a" d="M34.2,12H33.169l.319-1.276A1.8,1.8,0,0,0,34.8,9V1.8A1.8,1.8,0,0,0,33,0H21a1.8,1.8,0,0,0-1.8,1.8V9a1.8,1.8,0,0,0,1.313,1.724L20.831,12H16.8V10.8a1.2,1.2,0,0,0-1.2-1.2H13.2A1.2,1.2,0,0,0,12,10.8V12H10.8V10.8A1.2,1.2,0,0,0,9.6,9.6h-6a1.2,1.2,0,0,0-1.2,1.2V12H1.8A1.8,1.8,0,0,0,0,13.8V34.2A1.8,1.8,0,0,0,1.8,36H34.2A1.8,1.8,0,0,0,36,34.2V13.8A1.8,1.8,0,0,0,34.2,12ZM20.4,1.8a.6.6,0,0,1,.6-.6H33a.6.6,0,0,1,.6.6V9a.6.6,0,0,1-.6.6H21a.6.6,0,0,1-.6-.6Zm1.369,9H32.231l-.3,1.2H22.069Zm-8.569,0h2.4V12H13.2Zm-9.6,0h6V12h-6Zm30.6,24H1.8a.6.6,0,0,1-.6-.6V32.4H3a.6.6,0,0,0,0-1.2H1.2V30H3a.6.6,0,0,0,0-1.2H1.2V27.6H3a.6.6,0,1,0,0-1.2H1.2V25.2H3A.6.6,0,0,0,3,24H1.2V19.2h9a.6.6,0,1,0,0-1.2h-9V13.8a.6.6,0,0,1,.6-.6H34.2a.6.6,0,0,1,.6.6V18h-9a.6.6,0,1,0,0,1.2h9V24H33a.6.6,0,0,0,0,1.2h1.8v1.2H33a.6.6,0,0,0,0,1.2h1.8v1.2H33A.6.6,0,0,0,33,30h1.8v1.2H33a.6.6,0,0,0,0,1.2h1.8v1.8A.6.6,0,0,1,34.2,34.8Z" transform="translate(0)"/><path class="a" d="M24.4,28a8.4,8.4,0,1,0,8.4,8.4A8.4,8.4,0,0,0,24.4,28Zm0,15.6a7.2,7.2,0,1,1,7.2-7.2A7.2,7.2,0,0,1,24.4,43.6Z" transform="translate(-6.4 -11.2)"/></g></svg>