<svg xmlns="http://www.w3.org/2000/svg" width="43.771" height="30" viewBox="0 0 43.771 30"><defs><style>.a{fill:#d5af80;}</style></defs><g transform="translate(0 0)"><g transform="translate(0 0)"><path class="a" d="M35.018,122a.765.765,0,0,0,.136-.012.747.747,0,0,0,.6-.871,7.486,7.486,0,0,1,7.354-8.844,7.413,7.413,0,0,1,5.413,2.32.748.748,0,0,0,1.083-1.032,8.974,8.974,0,0,0-15.469,6.19,9.124,9.124,0,0,0,.149,1.638A.748.748,0,0,0,35.018,122Z" transform="translate(-31.143 -104.796)"/><path class="a" d="M377.7,119.437a.747.747,0,0,0-.218,1.034,7.45,7.45,0,0,1,1.208,4.078.748.748,0,0,0,1.5,0,8.947,8.947,0,0,0-1.45-4.894A.746.746,0,0,0,377.7,119.437Z" transform="translate(-344.296 -112.584)"/><path class="a" d="M192.653,48.846a.746.746,0,0,0,1.037-.2,10.461,10.461,0,0,1,18.764,8.619.748.748,0,1,0,1.442.4,11.952,11.952,0,0,0-21.447-9.851A.748.748,0,0,0,192.653,48.846Z" transform="translate(-175.469 -42.505)"/><path class="a" d="M8.2,257.782H5.982a4.486,4.486,0,1,1,0-8.973.748.748,0,1,0,0-1.5,5.982,5.982,0,1,0,0,11.964H8.2a.748.748,0,0,0,0-1.5Z" transform="translate(0 -229.366)"/><path class="a" d="M455.168,197.557A7.478,7.478,0,0,1,456.3,208.8a.748.748,0,1,0,1.088,1.026,8.973,8.973,0,0,0-1.356-13.489.748.748,0,0,0-.863,1.222Z" transform="translate(-416.06 -180.06)"/><path class="a" d="M147.568,270.23a5.85,5.85,0,0,0-11.7,0,.836.836,0,1,0,1.672,0,4.179,4.179,0,1,1,4.179,4.179h-21.73a.836.836,0,0,0,0,1.672h21.73A5.857,5.857,0,0,0,147.568,270.23Z" transform="translate(-108.71 -246.169)"/><path class="a" d="M73.087,155.773a6.012,6.012,0,0,0-2.314,3.2.749.749,0,0,0,.5.931.757.757,0,0,0,.213.031.747.747,0,0,0,.716-.534,4.5,4.5,0,0,1,1.737-2.4.748.748,0,0,0-.856-1.227Z" transform="translate(-64.543 -145.724)"/></g></g></svg>