<svg xmlns="http://www.w3.org/2000/svg" width="46.97" height="32.398" viewBox="0 0 46.97 32.398"><defs><style>.a{fill:#d5af80;}</style></defs><path class="a" d="M34.364,63.317H12.607a.471.471,0,1,1,0-.943h3.64l.938-3.672H1.669A1.671,1.671,0,0,1,0,57.034V32.586a1.671,1.671,0,0,1,1.669-1.669H45.3a1.671,1.671,0,0,1,1.669,1.669V57.033A1.671,1.671,0,0,1,45.3,58.7H29.786l.938,3.672h3.64a.471.471,0,0,1,0,.943Zm-17.144-.943H29.751L28.814,58.7H18.157ZM29.18,57.76H45.3a.727.727,0,0,0,.726-.726V32.586a.727.727,0,0,0-.726-.726H1.669a.727.727,0,0,0-.726.726V57.033a.727.727,0,0,0,.726.726Zm15.061-1.617H2.729a.471.471,0,0,1-.471-.471V33.666a.471.471,0,0,1,.471-.471H44.241a.471.471,0,0,1,.471.471v22A.471.471,0,0,1,44.241,56.142ZM3.2,55.2H43.769V34.137H3.2Zm30.4-1.74a.471.471,0,0,1-.333-.8l8.247-8.247a.471.471,0,0,1,.666.666l-8.247,8.247A.469.469,0,0,1,33.6,53.46ZM5.459,46.96a.471.471,0,0,1-.333-.8L15.474,35.807a.471.471,0,1,1,.666.666L5.792,46.822A.47.47,0,0,1,5.459,46.96Zm.1-6.932a.471.471,0,0,1-.333-.8l3.417-3.417a.471.471,0,1,1,.666.666L5.89,39.89A.469.469,0,0,1,5.557,40.028Z" transform="translate(0 -30.918)"/></svg>