<svg xmlns="http://www.w3.org/2000/svg" width="43.044" height="33" viewBox="0 0 43.044 33"><defs><style>.a{fill:#d5af80;}</style></defs><g transform="translate(0 0)"><path class="a" d="M34.851,99.606h18.74a2.871,2.871,0,0,0,0-5.739,2.852,2.852,0,0,0-2.031.842.718.718,0,0,0,1.016,1.014,1.424,1.424,0,0,1,1.015-.42,1.438,1.438,0,0,1,0,2.87H34.851a.717.717,0,1,0,0,1.435Z" transform="translate(-31.264 -90.997)"/><path class="a" d="M17.784,72.646H49.35a6.457,6.457,0,1,0,0-12.913,6.464,6.464,0,0,0-6.457,6.457.717.717,0,1,0,1.435,0,5.027,5.027,0,0,1,5.022-5.022,5.022,5.022,0,1,1,0,10.043H17.784a.717.717,0,0,0,0,1.435Z" transform="translate(-15.632 -59.733)"/><path class="a" d="M38.739,247.467H.717a.717.717,0,1,0,0,1.435H38.739a2.87,2.87,0,1,1-2.87,2.87.717.717,0,1,0-1.435,0,4.3,4.3,0,1,0,4.3-4.3Z" transform="translate(0 -231.684)"/><path class="a" d="M51.351,349.867h-16.5a.717.717,0,0,0,0,1.435h16.5a2.87,2.87,0,1,1-2.87,2.87.717.717,0,1,0-1.435,0,4.3,4.3,0,1,0,4.3-4.3Z" transform="translate(-31.264 -325.476)"/><path class="a" d="M44.328,298.667H17.784a.717.717,0,1,0,0,1.435H44.328a1.435,1.435,0,1,1-1.016,2.449.717.717,0,1,0-1.015,1.014,2.87,2.87,0,1,0,2.031-4.9Z" transform="translate(-15.632 -278.58)"/></g></svg>