<svg xmlns="http://www.w3.org/2000/svg" width="334.144" height="309.825" viewBox="0 0 334.144 309.825">
  <g id="review-avatar" transform="translate(0 -12.16)">
    <path id="Path_21672" data-name="Path 21672" d="M258.192,319.168c-10.156-18.038-32.9-32.078-61.286-37.615V260.508c20.383-12.644,34.459-39.131,34.459-69.854,0-42.967-27.448-77.8-61.31-77.8s-61.31,34.829-61.31,77.8c0,30.729,14.076,57.216,34.459,69.854v21.051c-29.9,5.812-53.582,21.027-62.867,40.426A167.139,167.139,0,0,1,0,179.233C0,87.11,74.95,12.16,167.072,12.16S334.144,87.11,334.144,179.232A167.034,167.034,0,0,1,258.192,319.168Z" fill="#5e6870"/>
  </g>
</svg>
