<svg xmlns="http://www.w3.org/2000/svg" width="14.625" height="18" viewBox="0 0 14.625 18">
  <path id="Path_5936" data-name="Path 5936" d="M7.309-15.216c-.113-.714-1.6-.721-1.687.039v4.964c-.042.12-.531.113-.562,0C5.01-11.1,4.785-15.1,4.778-15.2c-.113-.731-1.568-.731-1.684,0,0,.091-.232,4.1-.281,4.985-.032.113-.517.12-.562,0v-4.964c-.091-.763-1.571-.752-1.684-.039A42.859,42.859,0,0,0,0-10.687,3.705,3.705,0,0,0,2.422-7.01L1.969,1.361a.846.846,0,0,0,.844.889h2.25a.846.846,0,0,0,.844-.889L5.453-7.01c1.445-.527,2.422-3.677,2.422-3.677S7.337-15.05,7.309-15.216ZM11.5-5.171l-.527,6.507a.844.844,0,0,0,.84.914h1.969a.842.842,0,0,0,.844-.844V-14.906a.844.844,0,0,0-.844-.844C10.881-15.75,6-9.475,11.5-5.171Z" transform="translate(0 15.75)" fill="#d5af80"/>
</svg>
