<svg width="14" height="15" viewBox="0 0 14 15" fill="none" xmlns="http://www.w3.org/2000/svg">
<path d="M11.8945 0.593262C12.5781 0.593262 13.125 1.16748 13.125 1.87842V13.937C13.125 14.3198 12.8242 14.5933 12.4688 14.5933C12.0859 14.5933 11.8125 14.3198 11.8125 13.937V1.93311C11.4297 2.04248 10.5273 2.58936 9.98047 3.68311C9.46094 4.72217 9.1875 6.39014 10.8008 8.52295C11.0195 8.82373 10.9648 9.23389 10.6641 9.45264C10.3633 9.67139 9.95312 9.58936 9.73438 9.31592C7.62891 6.49951 8.25781 4.20264 8.80469 3.08154C9.59766 1.55029 10.9922 0.593262 11.8945 0.593262ZM3.0625 4.96826C2.67969 4.96826 2.40625 4.69482 2.40625 4.31201V1.24951C2.40625 0.894043 2.67969 0.593262 3.0625 0.593262C3.41797 0.593262 3.71875 0.894043 3.71875 1.24951V4.31201C3.71875 4.69482 3.41797 4.96826 3.0625 4.96826ZM4.8125 4.96826C4.42969 4.96826 4.15625 4.69482 4.15625 4.31201V1.24951C4.15625 0.894043 4.42969 0.593262 4.8125 0.593262C5.16797 0.593262 5.46875 0.894043 5.46875 1.24951V4.31201C5.46875 4.69482 5.16797 4.96826 4.8125 4.96826ZM6.78125 0.593262C7.13672 0.593262 7.4375 0.894043 7.4375 1.24951V5.18701C7.4375 6.36279 6.58984 7.34717 5.46875 7.56592L5.66016 13.4722C5.66016 13.7729 5.55078 14.0737 5.35938 14.2651C5.14062 14.4839 4.86719 14.5933 4.56641 14.5933H3.28125C2.98047 14.5933 2.70703 14.4839 2.48828 14.2651C2.29688 14.0737 2.1875 13.7729 2.1875 13.4722L2.37891 7.56592C1.25781 7.34717 0.4375 6.36279 0.4375 5.18701V1.24951C0.4375 0.894043 0.710938 0.593262 1.09375 0.593262C1.44922 0.593262 1.75 0.894043 1.75 1.24951V5.18701C1.75 5.81592 2.21484 6.28076 2.84375 6.28076H3.03516C3.22656 6.28076 3.39062 6.36279 3.5 6.49951C3.63672 6.60889 3.69141 6.80029 3.69141 6.96436L3.5 13.2808H4.34766L4.15625 6.96436C4.15625 6.80029 4.21094 6.60889 4.34766 6.49951C4.45703 6.36279 4.62109 6.28076 4.8125 6.28076H5.03125C5.63281 6.28076 6.125 5.81592 6.125 5.18701V1.24951C6.125 0.894043 6.39844 0.593262 6.78125 0.593262Z" fill="#D7385E"/>
</svg>
