<svg width="18" height="15" viewBox="0 0 18 15" fill="none" xmlns="http://www.w3.org/2000/svg">
<path d="M8.97266 9.51514C7.41406 9.51514 6.12891 8.25732 6.12891 6.67139C6.12891 5.11279 7.41406 3.82764 8.97266 3.82764C10.5586 3.82764 11.8164 5.11279 11.8164 6.67139C11.8164 8.25732 10.5586 9.51514 8.97266 9.51514ZM8.97266 5.14014C8.15234 5.14014 7.44141 5.85107 7.44141 6.67139C7.44141 7.51904 8.15234 8.20264 8.97266 8.20264C9.82031 8.20264 10.5039 7.51904 10.5039 6.67139C10.5039 5.85107 9.82031 5.14014 8.97266 5.14014ZM14.25 5.14014C13.0195 5.14014 12.0625 4.18311 12.0625 2.95264C12.0625 1.74951 13.0195 0.765137 14.25 0.765137C15.4531 0.765137 16.4375 1.74951 16.4375 2.95264C16.4375 4.18311 15.4531 5.14014 14.25 5.14014ZM10.3398 10.3901C12.5 10.3901 14.25 12.0308 14.25 14.0542C14.25 14.4644 13.8945 14.7651 13.457 14.7651H4.51562C4.07812 14.7651 3.75 14.4644 3.75 14.0542C3.75 12.0308 5.47266 10.3901 7.63281 10.3901H10.3398ZM5.11719 13.4526H12.8555C12.5547 12.4683 11.543 11.7026 10.3398 11.7026H7.63281C6.42969 11.7026 5.41797 12.4683 5.11719 13.4526ZM15.3164 6.01514C16.6562 6.01514 17.75 7.16357 17.75 8.58545C17.75 8.85889 17.5312 9.07764 17.2578 9.07764H11.7891C12.3633 8.44873 12.6914 7.60107 12.6914 6.67139C12.6914 6.53467 12.6641 6.39795 12.6641 6.26123C12.9648 6.12451 13.293 6.01514 13.6484 6.01514H15.3164ZM5.25391 6.67139C5.25391 7.60107 5.60938 8.44873 6.18359 9.07764H0.714844C0.441406 9.07764 0.25 8.85889 0.25 8.58545C0.25 7.16357 1.31641 6.01514 2.65625 6.01514H4.32422C4.67969 6.01514 5.00781 6.09717 5.30859 6.26123C5.28125 6.39795 5.25391 6.53467 5.25391 6.67139ZM3.75 5.14014C2.51953 5.14014 1.5625 4.18311 1.5625 2.95264C1.5625 1.74951 2.51953 0.765137 3.75 0.765137C4.95312 0.765137 5.9375 1.74951 5.9375 2.95264C5.9375 4.18311 4.95312 5.14014 3.75 5.14014Z" fill="#D7385E"/>
</svg>
