<svg width="17" height="19" viewBox="0 0 17 19" fill="none" xmlns="http://www.w3.org/2000/svg">
<path d="M10.4976 14.636C11.1775 15.4446 11.8103 16.1969 12.4424 16.9498C12.5031 17.0222 12.5667 17.0938 12.6162 17.1734C12.8577 17.5615 12.6459 17.9719 12.1855 18.0111C12.119 18.0167 12.0515 18.0135 11.9845 18.0135C9.80059 18.0136 7.61671 18.0123 5.43283 18.0151C5.16252 18.0155 4.91209 17.9968 4.77778 17.7178C4.6375 17.4265 4.75578 17.2 4.94748 16.9762C5.53225 16.2936 6.10899 15.6045 6.6882 14.9174C6.75276 14.8408 6.81314 14.7608 6.91237 14.6359C6.55573 14.6359 6.25353 14.6302 5.95162 14.6369C3.75269 14.6854 1.26209 13.2503 0.763256 10.3188C0.725522 10.0971 0.697429 9.87336 0.674905 9.6496C0.639941 9.30227 0.85956 9.05201 1.21714 9.0243C1.29332 9.0184 1.37032 9.0222 1.44694 9.0222C6.28405 9.02214 11.1212 9.0221 15.9583 9.0222C16.6056 9.02221 16.7836 9.21288 16.7213 9.83835C16.4767 12.2934 14.9275 14.0243 12.4956 14.5454C12.227 14.603 11.947 14.6216 11.6712 14.6324C11.3015 14.6468 10.9308 14.636 10.4976 14.636ZM1.89373 10.148C1.90159 10.229 1.90168 10.2948 1.91501 10.3579C2.30025 12.1822 3.89007 13.4974 5.79213 13.5188C7.73632 13.5407 9.68099 13.5299 11.6254 13.5202C12.2955 13.5168 12.9346 13.3535 13.5174 13.0221C14.6451 12.3807 15.3063 11.422 15.5377 10.148H1.89373ZM6.47509 16.8852H10.9232C10.1687 16.0053 9.44111 15.1567 8.69673 14.2886C7.96054 15.1491 7.23658 15.9952 6.47509 16.8852Z" fill="#D7385E"/>
<path d="M16.7429 7.8679H15.6171C15.5697 6.74327 15.1231 5.81572 14.1879 5.14432C13.5557 4.69049 12.8369 4.48568 12.0588 4.50948C11.1306 4.53787 10.328 4.87053 9.67269 5.52551C9.02416 6.17366 8.73862 6.97083 8.69175 7.8674H7.58002C7.62267 6.31945 8.21999 5.05878 9.52703 4.20072C11.0727 3.18597 12.7309 3.10496 14.3702 3.95406C15.9346 4.76437 16.6589 6.1214 16.7429 7.8679Z" fill="#D7385E"/>
<path d="M1.79445 7.86375H0.677368C0.746454 6.14257 1.47883 4.82662 2.99819 3.96706C4.44496 3.14858 6.5247 3.23883 7.7996 4.16144C7.58757 4.44648 7.37532 4.73183 7.14972 5.03512C6.00892 4.36248 4.81668 4.3008 3.63651 4.90232C2.44 5.51216 1.86814 6.54155 1.79445 7.86375Z" fill="#D7385E"/>
<path d="M12.6118 2.23151C12.2146 2.25593 11.8341 2.28643 11.453 2.29695C11.3734 2.29915 11.27 2.247 11.214 2.18716C9.89581 0.777523 7.51868 0.774308 6.19797 2.18877C6.14224 2.24845 6.03794 2.29896 5.95793 2.29671C5.57712 2.28602 5.19689 2.25558 4.81946 2.23235C5.12076 1.22274 6.91701 0.115768 8.42245 0.0227256C10.1217 -0.0822962 12.0191 0.915353 12.6118 2.23151Z" fill="#D7385E"/>
</svg>
