<svg width="9" height="15" viewBox="0 0 9 15" fill="none" xmlns="http://www.w3.org/2000/svg">
<path d="M7.11328 13.4526C7.46875 13.4526 7.76953 13.7534 7.76953 14.1089C7.76953 14.4917 7.46875 14.7651 7.11328 14.7651H2.30078C1.91797 14.7651 1.64453 14.4917 1.64453 14.1089C1.64453 13.7534 1.91797 13.4526 2.30078 13.4526H4.05078V10.3354C2.27344 10.0073 0.988281 8.39404 1.23438 6.58936L1.97266 1.53076C2.02734 1.09326 2.38281 0.765137 2.82031 0.765137H6.56641C7.00391 0.765137 7.35938 1.09326 7.41406 1.53076L8.15234 6.58936C8.39844 8.39404 7.11328 10.0073 5.36328 10.3354V13.4526H7.11328ZM6.18359 2.07764H3.20312L2.875 4.26514H6.51172L6.18359 2.07764ZM2.51953 6.78076C2.41016 7.62842 3.12109 9.07764 4.70703 9.07764C6.29297 9.07764 6.97656 7.62842 6.86719 6.75342L6.70312 5.57764H2.68359L2.51953 6.78076Z" fill="#D7385E"/>
</svg>
