<svg xmlns="http://www.w3.org/2000/svg" width="22.5" height="18.002" viewBox="0 0 22.5 18.002">
  <path id="Path_5942" data-name="Path 5942" d="M8.864-7.2a4.637,4.637,0,0,1,4.309-2.929c.005,0,.008,0,.013,0h1.35a2.025,2.025,0,0,0-1.157-1.281l-.161-.4-.627-1.725a3.516,3.516,0,0,0-3.267-2.221l-.01,0H5.3a3.512,3.512,0,0,0-3.266,2.219l-.627,1.725-.16.4A2.017,2.017,0,0,0,0-9.543v1.009A2,2,0,0,0,.757-6.971v1.346A1.126,1.126,0,0,0,1.882-4.5h.776A1.126,1.126,0,0,0,3.782-5.625V-6.75H8.7ZM3.906-12.516A1.514,1.514,0,0,1,5.312-13.5h4a1.518,1.518,0,0,1,1.406.984l.424,1.266H3.48ZM2.672-8.162A.8.8,0,0,1,1.828-9a.8.8,0,0,1,.844-.841A1.623,1.623,0,0,1,3.938-8.582C3.938-8.077,3.178-8.162,2.672-8.162ZM21.255-4.656l-.161-.4-.628-1.725A3.516,3.516,0,0,0,17.2-9l-.009,0H13.174A3.512,3.512,0,0,0,9.908-6.781L9.281-5.055l-.16.4A2.017,2.017,0,0,0,7.876-2.793v1.009A2,2,0,0,0,8.633-.221V1.125A1.126,1.126,0,0,0,9.758,2.25h.776a1.126,1.126,0,0,0,1.125-1.125V0h7.059V1.125A1.126,1.126,0,0,0,19.843,2.25h.776a1.126,1.126,0,0,0,1.125-1.125V-.221A2,2,0,0,0,22.5-1.785V-2.793A2.017,2.017,0,0,0,21.255-4.656Zm-9.474-1.11a1.514,1.514,0,0,1,1.406-.984h4a1.518,1.518,0,0,1,1.406.984L19.02-4.5H11.355ZM10.547-1.412A.8.8,0,0,1,9.7-2.253a.8.8,0,0,1,.844-.841,1.623,1.623,0,0,1,1.266,1.262C11.813-1.327,11.053-1.412,10.547-1.412Zm9.281,0c-.506,0-1.266.084-1.266-.422a1.62,1.62,0,0,1,1.266-1.26.8.8,0,0,1,.844.841A.8.8,0,0,1,19.828-1.412Z" transform="translate(0 15.752)" fill="#d5af80"/>
</svg>
