<svg xmlns="http://www.w3.org/2000/svg" width="20.252" height="15.748" viewBox="0 0 20.252 15.748">
  <path id="Path_5939" data-name="Path 5939" d="M9.857-10.538,3.375-5.2V.563a.563.563,0,0,0,.563.563l3.94-.01a.563.563,0,0,0,.56-.562V-2.812A.563.563,0,0,1,9-3.375h2.25a.563.563,0,0,1,.563.563V.55s0,0,0,0a.563.563,0,0,0,.563.562l3.938.011a.563.563,0,0,0,.563-.562V-5.2l-6.48-5.335a.427.427,0,0,0-.269-.095A.428.428,0,0,0,9.857-10.538ZM20.1-6.909,17.156-9.332V-14.2a.422.422,0,0,0-.422-.422H14.766a.422.422,0,0,0-.422.422v2.553L11.2-14.238a1.68,1.68,0,0,0-1.071-.384,1.686,1.686,0,0,0-1.073.384L.153-6.909A.421.421,0,0,0,0-6.584a.421.421,0,0,0,.1.269l.9,1.09a.421.421,0,0,0,.326.154.421.421,0,0,0,.269-.1l8.269-6.811a.427.427,0,0,1,.269-.095.428.428,0,0,1,.269.095l8.27,6.811a.42.42,0,0,0,.269.1.421.421,0,0,0,.325-.153l.9-1.09a.42.42,0,0,0,.1-.268A.421.421,0,0,0,20.1-6.909Z" transform="translate(0.001 14.623)" fill="#d5af80"/>
</svg>
