<svg xmlns="http://www.w3.org/2000/svg" width="18" height="18" viewBox="0 0 18 18">
  <path id="Path_5938" data-name="Path 5938" d="M17.441-2.191a.563.563,0,0,0-.754-.254L15.415-1.8,13.393-6.1a1.124,1.124,0,0,0-1.018-.647H7.726L7.565-7.875h4.248a.562.562,0,0,0,.563-.562V-9.562a.562.562,0,0,0-.562-.562H7.244l-.164-1.149A2.25,2.25,0,0,0,9-13.561a2.257,2.257,0,0,0-2.142-2.187A2.25,2.25,0,0,0,4.5-13.5c.013.212-.055-.306,1.136,8.034A1.125,1.125,0,0,0,6.75-4.5h4.911L13.868.2a1.125,1.125,0,0,0,1.518.529l2.3-1.156a.563.563,0,0,0,.254-.754ZM10.946-3.375h-.862A3.943,3.943,0,0,1,6.188,0,3.942,3.942,0,0,1,2.25-3.937,3.94,3.94,0,0,1,4.23-7.353L3.9-9.685A6.2,6.2,0,0,0,0-3.937,6.2,6.2,0,0,0,6.188,2.25a6.2,6.2,0,0,0,5.664-3.7Z" transform="translate(0 15.75)" fill="#d5af80"/>
</svg>
