<?xml version="1.0" standalone="no"?>
<!DOCTYPE svg PUBLIC "-//W3C//DTD SVG 20010904//EN"
 "http://www.w3.org/TR/2001/REC-SVG-20010904/DTD/svg10.dtd">
<svg version="1.0" xmlns="http://www.w3.org/2000/svg"
 width="700.000000pt" height="700.000000pt" viewBox="0 0 700.000000 700.000000"
 preserveAspectRatio="xMidYMid meet">
<metadata>
Created by potrace 1.14, written by Peter Selinger 2001-2017
</metadata>
<g transform="translate(0.000000,700.000000) scale(0.100000,-0.100000)"
fill="#000000" stroke="none">
<path d="M2818 6995 c-1 -1 -41 -6 -88 -10 -91 -7 -116 -10 -195 -20 -27 -3
-61 -8 -75 -9 -48 -6 -201 -36 -309 -61 -40 -9 -78 -18 -85 -19 -6 -1 -15 -4
-21 -8 -5 -3 -26 -9 -45 -13 -34 -6 -309 -97 -360 -118 -14 -6 -27 -11 -30
-12 -8 -3 -53 -22 -95 -40 -22 -10 -45 -19 -51 -20 -10 -3 -252 -123 -304
-152 -14 -8 -47 -27 -75 -44 -27 -16 -58 -32 -67 -35 -10 -4 -18 -10 -18 -15
0 -5 -5 -9 -10 -9 -13 0 -186 -116 -195 -130 -4 -7 13 -1 36 11 24 12 45 21
47 20 1 0 3 -1 5 0 9 3 45 10 59 11 10 1 18 6 18 10 0 4 3 7 8 6 4 -1 23 2 42
7 19 4 44 9 55 11 11 1 20 3 20 4 0 7 126 26 235 36 188 17 310 4 465 -48 97
-33 267 -121 313 -161 12 -11 22 -17 22 -14 0 4 12 -3 27 -16 40 -32 183 -175
183 -182 0 -3 10 -17 23 -30 12 -13 33 -40 47 -60 14 -20 40 -56 58 -80 17
-24 32 -48 32 -54 0 -5 4 -11 8 -13 11 -4 57 -81 54 -90 -1 -5 2 -8 7 -8 5 0
17 -20 28 -45 10 -25 22 -45 26 -45 5 0 5 -4 2 -10 -3 -5 -1 -10 5 -10 6 0 8
-4 5 -10 -3 -5 -1 -10 4 -10 6 0 10 -3 9 -7 -1 -5 8 -30 21 -58 44 -95 71
-156 71 -159 0 -2 8 -21 17 -42 9 -22 17 -41 18 -44 0 -6 62 -164 76 -195 4
-11 10 -29 11 -40 2 -11 6 -22 9 -25 11 -9 57 -148 51 -154 -3 -3 0 -6 6 -6 7
0 12 -8 12 -18 0 -10 3 -22 7 -26 4 -3 8 -12 9 -19 1 -7 17 -52 34 -102 18
-49 33 -94 34 -100 1 -5 4 -14 7 -20 10 -17 33 -90 31 -97 -1 -5 3 -8 10 -8 6
0 8 -3 5 -7 -4 -3 -2 -12 4 -20 6 -7 9 -13 6 -13 -3 0 1 -16 9 -35 8 -19 11
-35 7 -35 -5 0 -2 -4 4 -8 7 -4 14 -17 16 -27 4 -20 7 -30 30 -90 7 -16 12
-33 12 -37 0 -3 3 -10 8 -14 4 -4 7 -18 7 -31 0 -12 5 -23 10 -23 6 0 9 -3 8
-7 -1 -5 6 -33 17 -63 11 -30 20 -57 20 -60 1 -3 4 -12 8 -20 3 -8 22 -62 42
-120 20 -58 43 -122 51 -142 8 -21 11 -38 8 -38 -3 0 2 -7 10 -16 9 -8 14 -19
11 -24 -3 -4 2 -21 10 -36 8 -16 15 -36 15 -45 0 -9 3 -19 8 -23 4 -4 7 -11 8
-14 0 -4 4 -15 8 -24 4 -9 9 -25 11 -35 2 -10 4 -19 5 -20 2 -2 3 -6 5 -10 1
-5 7 -21 13 -36 7 -16 12 -34 12 -41 0 -6 4 -16 8 -21 5 -6 18 -41 31 -80 12
-38 27 -78 32 -87 5 -10 9 -27 9 -38 0 -11 4 -20 10 -20 5 0 9 -3 8 -7 -2 -11
14 -62 51 -160 17 -46 28 -83 26 -83 -3 0 4 -16 15 -37 10 -20 17 -40 14 -45
-3 -4 0 -8 7 -8 7 0 10 -3 6 -6 -5 -5 7 -44 38 -119 5 -11 9 -22 10 -25 7 -29
39 -117 45 -125 5 -5 9 -13 9 -17 4 -21 32 -97 64 -168 11 -25 20 -49 21 -55
2 -5 10 -27 19 -49 9 -21 17 -40 17 -43 0 -2 13 -32 29 -66 16 -34 36 -80 46
-102 24 -54 157 -321 184 -367 11 -21 29 -53 39 -70 20 -35 71 -116 131 -208
19 -30 39 -57 43 -58 5 -2 8 -8 8 -14 0 -5 6 -16 13 -23 6 -8 28 -37 47 -66
19 -28 63 -87 98 -130 34 -44 62 -81 62 -84 0 -6 146 -160 189 -199 18 -17 51
-48 74 -69 22 -20 44 -37 49 -37 5 0 6 -4 3 -10 -3 -5 -1 -10 5 -10 6 0 16 -5
23 -10 7 -6 27 -24 46 -40 19 -17 40 -30 47 -30 6 0 15 -7 18 -16 3 -8 10 -12
16 -9 5 3 10 1 10 -4 0 -6 7 -11 15 -11 7 0 19 -8 24 -17 6 -10 11 -15 11 -11
0 4 16 -1 35 -12 34 -19 176 -71 205 -75 8 -1 29 -5 45 -9 123 -28 274 -21
389 19 39 14 75 26 81 27 5 2 14 6 20 11 5 4 35 24 65 44 30 20 66 48 78 62
52 58 70 79 117 141 28 36 52 67 56 70 3 3 21 28 40 55 18 28 36 52 39 55 3 3
19 26 35 52 17 27 33 48 38 48 4 0 7 4 7 10 0 5 20 42 45 80 25 39 64 106 87
148 23 42 46 80 52 84 6 4 7 8 3 8 -5 0 1 16 13 35 12 19 18 35 13 35 -4 0 -1
5 7 10 8 5 15 13 15 17 1 4 13 33 27 63 75 161 228 570 212 570 -2 0 2 15 9
33 8 17 18 50 22 72 5 22 10 45 11 50 8 26 26 103 29 125 2 14 11 57 19 95 9
39 18 91 20 115 3 25 8 59 11 75 3 17 7 50 9 75 2 25 5 45 6 45 12 0 20 602 9
710 -4 44 -11 113 -14 152 -6 70 -12 108 -15 108 -1 0 -3 16 -5 35 -2 19 -9
62 -15 95 -6 33 -13 69 -15 80 -2 11 -4 20 -5 20 -1 0 -4 16 -7 35 -4 28 -55
237 -67 275 -2 6 -4 13 -5 18 0 4 -8 23 -16 43 -8 20 -12 40 -9 45 3 5 1 9 -4
9 -5 0 -9 6 -9 13 0 13 -61 181 -93 257 -10 25 -24 60 -32 78 -7 17 -16 32
-20 32 -4 0 -5 6 -2 13 3 8 -2 20 -11 27 -8 7 -15 18 -15 24 0 26 -127 263
-228 426 -94 150 -267 390 -282 390 -4 0 -11 9 -16 19 -15 33 -82 107 -250
275 -173 173 -172 172 -284 265 -102 84 -100 83 -140 111 -19 13 -37 27 -40
30 -9 10 -244 165 -272 179 -15 8 -36 21 -46 30 -10 9 -49 32 -87 51 -38 19
-76 41 -83 48 -7 7 -17 10 -22 7 -5 -3 -10 -1 -12 3 -3 8 -80 47 -211 106 -32
14 -59 26 -61 26 -2 0 -21 8 -42 17 -22 9 -41 17 -44 18 -3 1 -14 5 -25 10
-55 23 -122 47 -135 50 -8 2 -55 16 -105 33 -82 27 -156 49 -195 56 -8 2 -22
6 -30 9 -8 3 -51 13 -95 22 -44 9 -89 19 -100 21 -28 6 -64 12 -109 19 -21 4
-48 9 -60 11 -30 7 -70 12 -159 19 -43 3 -88 9 -100 12 -23 5 -573 14 -579 8z"/>
<path d="M1047 6233 c-2 -1 -19 -3 -38 -4 -42 -2 -169 -20 -229 -33 -14 -3
-34 -8 -45 -10 -11 -2 -40 -9 -65 -16 -25 -7 -52 -14 -60 -15 -8 -2 -16 -4
-17 -5 -2 -2 -6 -3 -10 -5 -5 -1 -15 -4 -23 -7 -8 -4 -52 -19 -98 -34 -45 -15
-87 -33 -93 -40 -16 -19 0 -67 20 -59 57 22 210 62 271 71 14 1 43 6 65 9 51
8 219 9 265 2 31 -5 82 -15 159 -33 13 -2 41 -14 62 -24 21 -11 43 -20 49 -20
15 0 179 -104 216 -137 18 -15 42 -37 55 -49 36 -32 110 -113 152 -168 37 -49
46 -76 27 -76 -5 0 -10 -7 -10 -15 0 -8 -9 -35 -20 -60 -11 -25 -29 -65 -40
-90 -11 -25 -20 -52 -20 -60 0 -8 -4 -15 -8 -15 -5 0 -9 -6 -9 -12 0 -7 -12
-39 -26 -71 -15 -32 -27 -60 -27 -63 0 -3 -6 -20 -14 -37 -13 -27 -76 -178
-101 -242 -5 -11 -7 -23 -7 -27 1 -5 -3 -8 -10 -8 -6 0 -8 -3 -5 -6 3 -4 1
-16 -5 -28 -7 -11 -13 -23 -13 -26 -1 -3 -8 -21 -16 -40 -8 -19 -31 -73 -49
-120 -19 -47 -39 -88 -45 -92 -5 -4 -6 -8 -2 -8 4 0 2 -10 -5 -22 -7 -13 -13
-27 -13 -33 -1 -10 -18 -50 -56 -132 -10 -24 -19 -45 -19 -47 0 -3 -5 -17 -12
-33 -6 -15 -12 -30 -13 -33 -3 -10 -27 -65 -40 -95 -39 -88 -53 -124 -47 -129
3 -3 1 -6 -5 -6 -5 0 -15 -18 -22 -41 -7 -22 -23 -60 -36 -85 -13 -24 -19 -42
-14 -39 5 3 6 -1 3 -9 -3 -9 -10 -16 -15 -16 -5 0 -9 -8 -9 -18 0 -10 -7 -28
-16 -40 -8 -12 -13 -22 -10 -22 4 0 -25 -73 -54 -135 -5 -11 -19 -45 -31 -75
-11 -30 -27 -68 -34 -85 -8 -16 -30 -70 -50 -119 -19 -48 -47 -116 -61 -150
-76 -178 -111 -266 -112 -279 0 -4 -7 -18 -14 -30 -8 -12 -22 -44 -32 -72 -10
-27 -27 -64 -37 -81 -10 -17 -16 -34 -13 -37 4 -4 0 -17 -8 -29 -8 -13 -31
-66 -52 -118 -21 -52 -47 -113 -57 -136 -10 -23 -19 -44 -19 -48 0 -3 -9 -25
-19 -49 -11 -23 -58 -134 -104 -247 -47 -113 -91 -217 -99 -231 -25 -47 -71
-99 -113 -127 -33 -22 -41 -33 -40 -57 0 -16 5 -30 10 -29 28 3 155 49 155 56
0 4 4 8 9 8 26 0 165 112 154 124 -4 3 0 6 8 6 14 1 69 72 69 90 0 6 4 10 10
10 5 0 12 11 16 25 3 14 10 25 15 25 5 0 9 9 9 20 0 11 4 20 8 20 5 0 9 6 9
13 0 6 11 35 23 62 13 28 24 53 25 58 2 4 4 9 5 12 1 3 3 8 4 13 1 4 9 23 18
42 8 19 25 60 38 90 12 30 29 70 36 88 8 17 20 47 28 65 7 17 19 46 26 62 8
17 14 32 15 35 2 7 20 50 40 95 10 22 19 45 20 50 2 10 31 78 55 130 5 11 25
58 44 105 30 77 66 163 101 245 7 17 48 113 90 215 42 102 84 201 94 220 17
34 33 83 30 96 0 4 3 10 8 13 11 7 63 131 63 149 0 6 5 12 10 12 6 0 10 6 10
13 0 10 75 196 132 327 40 90 52 123 50 133 -1 4 2 7 8 7 5 0 10 8 10 18 0 10
3 22 7 26 5 4 8 11 8 14 0 17 28 72 37 72 5 0 7 4 3 10 -3 5 -1 17 4 27 6 10
22 47 36 83 14 36 30 74 35 85 5 11 39 92 76 180 36 88 71 165 76 172 5 7 7
17 3 23 -3 5 -2 10 2 10 9 0 48 99 45 113 -1 4 2 7 7 7 9 0 26 48 23 63 -1 4
3 7 8 7 5 0 9 3 8 8 -1 4 4 19 10 34 39 95 96 228 108 256 9 18 16 41 17 52 1
10 4 17 8 15 3 -3 12 15 20 38 7 23 19 53 26 66 10 20 9 29 -5 53 -9 15 -20
28 -24 28 -4 0 -14 12 -22 28 -8 15 -15 24 -16 21 0 -3 -26 19 -58 50 -70 68
-99 91 -112 91 -6 0 -10 3 -10 8 0 4 -17 16 -37 27 -21 11 -40 22 -43 25 -14
16 -234 115 -275 125 -11 2 -38 9 -60 15 -22 6 -60 13 -85 16 -49 6 -229 12
-233 7z"/>
<path d="M2166 5415 c-15 -41 -27 -76 -25 -78 2 -1 -3 -14 -12 -27 -13 -20
-36 -79 -44 -110 -1 -3 -6 -16 -12 -30 -48 -114 -59 -147 -52 -160 7 -14 107
-282 113 -305 2 -5 6 -23 11 -40 4 -16 10 -34 14 -40 3 -5 6 -14 8 -20 1 -5
14 -44 28 -85 15 -41 28 -82 30 -90 2 -8 13 -39 24 -68 11 -29 20 -54 20 -55
0 -2 -1 1 42 -122 17 -49 33 -102 36 -118 3 -15 9 -30 14 -33 5 -3 9 -14 9
-25 0 -10 4 -27 10 -37 5 -9 39 -105 74 -212 71 -210 86 -257 94 -280 3 -8 6
-18 6 -22 1 -3 4 -10 9 -14 4 -4 7 -18 7 -31 0 -13 5 -23 11 -23 5 0 8 -4 5
-8 -2 -4 -1 -14 4 -22 8 -12 44 -15 195 -16 102 0 185 3 185 7 0 3 -7 24 -16
45 -9 22 -16 39 -15 39 3 0 0 7 -34 105 -15 41 -27 77 -27 80 0 3 -4 15 -9 28
-5 13 -9 29 -9 37 0 8 -4 16 -9 19 -4 3 -12 20 -16 38 -9 41 -8 37 -40 128
-15 41 -28 80 -29 85 -1 6 -8 20 -14 33 -7 12 -10 22 -6 22 3 0 1 7 -6 15 -7
8 -10 15 -7 15 3 0 -10 44 -30 98 -19 53 -35 102 -37 107 -1 6 -4 15 -7 20 -4
6 -10 24 -14 40 -5 17 -9 35 -11 40 -5 15 -34 98 -41 115 -3 8 -7 21 -9 28 -1
7 -14 47 -29 90 -24 71 -34 98 -35 105 -5 20 -60 170 -64 174 -3 4 -6 17 -6
30 0 12 -4 23 -10 23 -5 0 -10 9 -10 20 0 10 -5 32 -11 47 -6 15 -15 37 -20
48 -4 11 -33 85 -64 165 -62 157 -126 300 -135 300 -3 0 -18 -34 -34 -75z"/>
<path d="M1290 3155 c0 -1 -15 -38 -34 -83 -19 -45 -31 -84 -28 -85 4 -2 46
-4 95 -3 48 1 87 -2 87 -7 0 -4 5 -5 12 -1 16 10 708 11 708 1 0 -5 5 -5 12
-1 17 11 228 11 228 1 0 -5 5 -5 12 -1 17 11 228 11 228 0 0 -5 6 -4 13 1 10
7 47 9 88 4 3 -1 14 -27 24 -58 11 -32 22 -62 26 -68 5 -8 19 -54 23 -75 1 -3
6 -18 13 -35 11 -31 20 -56 21 -65 1 -3 12 -35 26 -71 14 -37 22 -69 19 -73
-4 -3 0 -6 7 -6 7 0 10 -3 7 -7 -4 -3 -3 -11 2 -17 6 -7 12 -23 14 -37 3 -13
12 -42 21 -64 10 -22 17 -41 17 -42 -1 -4 7 -29 16 -50 3 -10 5 -23 4 -30 -1
-6 3 -14 9 -18 5 -3 10 -12 10 -20 0 -8 5 -26 12 -42 6 -15 12 -31 13 -35 2
-5 4 -10 5 -13 1 -3 3 -8 4 -12 1 -5 6 -21 13 -38 17 -45 26 -69 28 -75 5 -13
18 -48 31 -80 20 -52 37 -94 39 -100 1 -3 6 -16 12 -30 6 -14 20 -47 31 -75
55 -138 172 -375 277 -560 51 -91 187 -295 196 -295 5 0 8 -4 6 -8 -2 -8 111
-153 173 -222 87 -97 189 -196 290 -283 36 -31 137 -105 160 -117 14 -7 27
-16 30 -19 22 -26 270 -152 330 -166 8 -3 34 -11 57 -19 40 -15 94 -28 121
-29 6 0 12 -3 12 -6 0 -15 332 -21 435 -8 69 8 150 23 150 27 0 1 12 3 26 5
14 2 45 9 70 15 24 7 51 14 59 15 8 2 32 10 52 19 33 14 36 18 29 43 -5 16
-14 27 -20 25 -19 -4 -102 -12 -151 -15 -25 -2 -51 -6 -58 -11 -6 -4 -12 -4
-12 1 0 4 -43 9 -96 10 -52 1 -103 5 -112 9 -9 4 -24 8 -32 8 -22 2 -112 26
-135 37 -11 5 -29 11 -40 12 -11 2 -31 9 -45 14 -14 6 -45 19 -70 29 -62 26
-195 101 -210 119 -7 8 -16 15 -21 15 -8 0 -36 20 -64 47 -8 7 -17 13 -21 13
-3 0 -15 10 -25 22 -11 11 -19 18 -19 15 0 -4 -10 2 -22 12 -13 11 -34 29 -48
41 -90 76 -132 114 -201 185 -89 92 -124 130 -159 175 -14 17 -35 44 -48 58
-28 34 -165 229 -183 262 -8 14 -16 27 -20 30 -10 10 -67 107 -127 220 -19 36
-45 84 -58 106 -13 23 -21 44 -18 46 2 3 -2 11 -11 18 -8 7 -15 16 -15 20 0 5
-18 48 -41 97 -62 136 -65 143 -99 228 -18 44 -37 91 -43 105 -6 14 -11 27
-11 30 -1 6 -24 66 -36 95 -5 11 -19 49 -30 85 -12 36 -26 74 -32 85 -5 12
-10 27 -12 35 -2 8 -6 24 -10 35 -5 11 -12 31 -16 45 -4 14 -11 34 -16 45 -4
11 -8 25 -9 31 -2 7 -17 50 -34 96 -17 47 -31 91 -31 99 0 8 -4 19 -10 25 -5
5 -11 18 -13 29 -1 11 -5 25 -8 30 -3 6 -16 44 -30 85 -13 41 -28 78 -34 82
-5 4 -7 8 -3 8 12 0 -33 120 -45 121 -11 1 -1737 4 -1737 4z"/>
</g>
</svg>
